<svg xmlns="http://www.w3.org/2000/svg" viewBox="0 0 276 137"><defs><style>.cls-1{isolation:isolate;}.cls-2{fill:#25344f;}.cls-3{fill:#fff;}.cls-4{fill:#fdc674;}.cls-5{opacity:0.48;mix-blend-mode:difference;}.cls-6{fill:#f9a435;}</style></defs><title>openpipe-ui_objective-container</title><g class="cls-1"><g id="Layer_1" data-name="Layer 1"><rect class="cls-2" x="31.55" y="17" width="240" height="116" rx="16"/><rect class="cls-3" x="29.55" y="14" width="240" height="116" rx="16"/><path class="cls-4" d="M45.55,14h208a16,16,0,0,1,16,16V50a0,0,0,0,1,0,0h-240a0,0,0,0,1,0,0V30a16,16,0,0,1,16-16Z"/><g class="cls-5"><circle class="cls-2" cx="34.45" cy="35" r="28"/></g><circle class="cls-6" cx="32.45" cy="32" r="28"/><polygon class="cls-3" points="32.45 17.95 36.7 26.54 46.18 27.92 39.32 34.61 40.94 44.05 32.45 39.59 23.97 44.05 25.59 34.61 18.73 27.92 28.21 26.54 32.45 17.95"/></g></g></svg>