<svg xmlns="http://www.w3.org/2000/svg" viewBox="0 0 134 107"><defs><style>.cls-1{isolation:isolate;}.cls-2{fill:#25344f;}.cls-3{fill:#fff;}.cls-4{opacity:0.48;mix-blend-mode:difference;}.cls-5{fill:#f26363;}</style></defs><title>openpipe-ui_choice-container</title><g class="cls-1"><g id="Layer_1" data-name="Layer 1"><rect class="cls-2" x="34" y="7" width="96" height="96" rx="16"/><rect class="cls-3" x="32" y="4" width="96" height="96" rx="16"/><g class="cls-4"><circle class="cls-2" cx="34.22" cy="55.38" r="28"/></g><circle class="cls-5" cx="32.22" cy="52.38" r="28"/><path class="cls-3" d="M29.76,56.55v-.17c0-2.64.41-3.22,2.89-5.82a4.94,4.94,0,0,0,1.61-3.26c0-1.49-1.28-2.44-3.26-2.44A10,10,0,0,0,26.46,46l-.38-3.75a14,14,0,0,1,5.33-1c4.05,0,6.94,2.4,6.94,5.7,0,1.78-.66,3-3,5.54-1.61,1.77-1.86,2.31-1.86,4.17H29.76Zm-.25,2.68h4.22v4.3H29.51Z"/></g></g></svg>