<svg id="Layer_1" data-name="Layer 1" xmlns="http://www.w3.org/2000/svg" viewBox="0 0 114 114"><defs><style>.cls-1{fill:#1b7a69;}.cls-2{fill:#fff;}</style></defs><title>his_favicon_dark</title><circle class="cls-1" cx="57" cy="57" r="53.67"/><path class="cls-2" d="M69.09,56.63c9.2-.28,15.77-.51,15.94-.51l-.21-6c-.16,0-5.73.2-13.79.45A167.82,167.82,0,0,1,81.52,26.5l-5.23-2.94A167.77,167.77,0,0,0,64.6,50.76l-13,.37c4.26-13.12,8.85-24.78,8.93-25L55,23.93c-.37.94-5.32,13.52-9.71,27.36-9.74.23-19.33.41-26.16.41v6c6.08,0,19.33,18,19.33,24.5h6c0-5.81,2.37-15.4,5.29-25l13.06-.36A96.07,96.07,0,0,0,58.88,82.2a38.87,38.87,0,0,0,1.77,11.66l5.73-1.78a33.56,33.56,0,0,1-1.5-9.88C64.88,73.71,66.68,64.79,69.09,56.63ZM40,70.22a57.07,57.07,0,0,0-9.72-12.63c4.12-.06,8.57-.15,13.08-.26C42.09,61.76,40.91,66.17,40,70.22Z"/></svg>