<svg id="Layer_1" data-name="Layer 1" xmlns="http://www.w3.org/2000/svg" viewBox="0 0 114 114"><defs><style>.cls-1{fill:#1b7a69;}</style></defs><title>his_favicon</title><path class="cls-1" d="M57,4A53,53,0,0,0,45.42,108.73l1.3-5.86a47,47,0,1,1,57.27-47L104,57c0,25.29-16.36,38.75-28.18,38.75C69,95.79,65,91.47,65,83.93c0-9.39,2-19.26,4.68-28.26,10.17-.31,17.45-.56,17.64-.57l-.21-6c-.17,0-6.46.23-15.5.51A181.33,181.33,0,0,1,83.28,22.83l-5.23-2.94A182.31,182.31,0,0,0,65.21,49.8l-14.83.42c4.7-14.53,9.81-27.52,9.91-27.76l-5.58-2.2c-.41,1-5.87,14.91-10.69,30.12-10.73.25-21.32.45-28.84.45v6c2.53,0,7.63,3.35,13.32,10.84,5.27,7,8.12,13.57,8.12,16.26h6c0-6.43,2.63-17,5.86-27.66,5.12-.13,10.18-.27,14.88-.41A105.7,105.7,0,0,0,59,83.93c0,10.85,6.57,17.86,16.75,17.86,13.61,0,33.67-13.86,34.17-43.59l0-1.2A53.07,53.07,0,0,0,57,4ZM38.24,71.58A61.47,61.47,0,0,0,26.81,56.72c4.81-.07,10-.18,15.36-.3C40.62,61.64,39.24,66.85,38.24,71.58Z"/></svg>