<svg xmlns="http://www.w3.org/2000/svg" viewBox="0 0 872 872"><defs><style>.cls-1{fill:#1b7a69;}</style></defs><title>his_logo_circle</title><g id="Layer_4" data-name="Layer 4"><path class="cls-1" d="M793.91,456.85a17.5,17.5,0,0,0-6.76-3.58,20.34,20.34,0,0,0-8.62-.41,24.24,24.24,0,0,0-8.66,3,26,26,0,0,0-6.88,5.68,26.76,26.76,0,0,0-4.55,7.53,23.64,23.64,0,0,0-1.69,8.63v.12a20.24,20.24,0,0,0,1.52,8.15,16.69,16.69,0,0,0,4.4,6.15,17.36,17.36,0,0,0,6.76,3.58,20.29,20.29,0,0,0,8.61.41,24.22,24.22,0,0,0,8.67-3,26,26,0,0,0,6.88-5.68,26.73,26.73,0,0,0,4.54-7.53,23.65,23.65,0,0,0,1.7-8.63v-.12A20.07,20.07,0,0,0,798.3,463,16.55,16.55,0,0,0,793.91,456.85Zm-3.41,15.93a15.46,15.46,0,0,1-.94,5.18,16.69,16.69,0,0,1-2.53,4.52,14,14,0,0,1-3.88,3.38,13.46,13.46,0,0,1-4.93,1.75,10.74,10.74,0,0,1-4.94-.31,9.89,9.89,0,0,1-3.85-2.26,10.14,10.14,0,0,1-2.51-3.8,13,13,0,0,1-.85-4.94v-.12A15.46,15.46,0,0,1,767,471a16.28,16.28,0,0,1,2.53-4.52,14.26,14.26,0,0,1,3.84-3.37,13.37,13.37,0,0,1,5-1.76,10.93,10.93,0,0,1,4.91.31,9.83,9.83,0,0,1,3.89,2.26,10.31,10.31,0,0,1,2.51,3.79,13.28,13.28,0,0,1,.85,5Zm-143.91-82c-.34-2.31-1.25-8.44-5.11-13.83-3.58-5-10.54-10.54-23.41-8.62a31.37,31.37,0,0,0-17.13,8.35c0-.4,0-.8,0-1.14l-11.79-.14c-.13,10.63-.38,23.79-.74,36.64h0c-.47,10.23-6.49,21.48-12,22.3-.1,0-.8.12-1,0-2.72-2.39-2.35-15.64-2.17-22,.15-5.37.28-10-.26-13.58-1.59-10.69-9.56-22.25-26.76-19.68-6.82,1-11.74,5.46-15.28,11.63a17.08,17.08,0,0,0-1.52-1.68c-4.51-4.26-11.17-5.78-19.82-4.49a26.09,26.09,0,0,0-11,4.65c.41-3.13.69-5,.7-5.12l-11.67-1.7c-.31,2.09-7.41,51.38-4.36,71.85l11.67-1.74c-1.52-10.16-.13-29.23,1.47-44.67l.23.15c1.78-2.74,8.28-10.8,14.66-11.75,3.35-.5,7.8-.66,10,1.39,2.35,2.22,3.12,7.75,2.3,16.44h.12a175.93,175.93,0,0,0-1.34,33.8l11.77-.67c-1.23-21.75,2.31-54.72,13.8-56.43,7.73-1.16,12.22,2.12,13.36,9.75a81.45,81.45,0,0,1,.13,11.51c-.35,12.37-.7,25.15,6.17,31.2a12.42,12.42,0,0,0,10.41,2.84l.13,0a18.32,18.32,0,0,0,9.08-4.23c-.52,10.12-1.12,17.68-1.81,20l11.31,3.35c1.08-3.63,1.89-14.41,2.5-27.35,4.92,2.57,11.17,3.43,18.13,2.4C635.47,437.5,649.92,413.11,646.59,390.82Zm-30.89,37.7c-5.46.81-10.06,0-12.63-2.32-1.9-1.7-2.91-4.4-3-8.05.19-6.35.35-12.66.48-18.46.68-2.42,5.47-17.59,19.27-19.65,7.57-1.13,10.52,1.64,12.08,3.82,2.2,3.07,2.79,7,3.06,8.83C637.43,409.29,626.2,427,615.7,428.52ZM543.62,530.36l.3-33.32,12.33-1.84.08-8.48-33.58,5-.08,8.48L535,498.37l-.3,33.32Zm-362.8,37.08L417.6,532.11l-1.74-11.66L179.08,555.77c-41.34,6.17-57.52-26.71-60.56-47.11-2.46-16.51-1.55-34.38.77-50.93l16.22-3c-4.14,9.61-4.68,20.57-3.88,25.93.72,4.84,1.81,12.14,6.29,18.18,3.91,5.27,11.73,11.08,26.73,8.85s24.8-11.91,31.13-21.58c3.91,11,13.38,14.94,22,13.65,10.11-1.51,17.12-9.2,21.77-17.17a22.21,22.21,0,0,0,4.3,6.62A15.76,15.76,0,0,0,258,493.81l.19,0,.19,0c6.52-1.41,11.08-5.56,14.24-10.22,3.77,4.82,9.43,6.7,17,5.58,7.19-1.08,12.82-5.09,16.48-8.54a15.85,15.85,0,0,0,13.65,4c14.48-2.16,23-9.06,25.24-20.51H345l.08-.68c0-.24.1-.47.13-.71h0l3.37-30.62.91-1.38c.08-.11,7.55-11.45,18.74-13.12,2.27-.34,3.85-.1,4.7.7,3.72,3.54,2.32,17.89,1.3,28.37-1.49,15.29-2.89,29.72,4.65,36.89,2.35,2.23,6.62,4.67,13.64,3.62,18.32-2.73,21.5-21.17,21.63-22l-11.65-1.88c0,.11-1.84,10.69-11.72,12.17-1.86.28-3.13.1-3.78-.51-3.37-3.2-2-17.07-1-27.19,1.53-15.72,3-30.57-4.92-38.07-3.61-3.44-8.51-4.72-14.56-3.82a35.57,35.57,0,0,0-15.77,6.81l1.81-16.4,62-9.25.93-12.07-61.6,9.19,2.55-23.12-11.72-1.3L341.75,386l-26.38,3.94c1.55-8.18,3.24-15.95,4.89-22.75l-11.46-2.79c-1.13,4.64-3.51,14.83-5.83,27.39l-13.73,2.05-.94,12.06L300.87,404c-3.63,23-6,49.84-.93,65.9-2,2.29-6.37,6.66-12.1,7.51-5,.75-7.18.18-8.49-8.66a16.49,16.49,0,0,1-.1-2.44,1.43,1.43,0,0,1,0-.21h0c.08-12,3.88-55.7,7.82-94.76l-11.73-1.18c-1.35,13.37-7.41,74.33-7.8,94.66-.46,2.4-3.3,15.38-11.48,17.34a4,4,0,0,1-3.77-1.17c-6.74-6.86-5.65-34.36-2.73-51.7l-11.63-2c-.07.41-.16.93-.25,1.5a30.52,30.52,0,0,0-15.6-1.39c-13.13,2-25.35,14.18-28,34.08h0c-.08.31-7.92,31.07-31.15,34.54-11.16,1.66-14.44-2.76-15.52-4.21a20.3,20.3,0,0,1-3.13-7.51,70.94,70.94,0,0,0,11.81-.84c14.6-2.18,29.21-16.26,26.89-31.75a17.18,17.18,0,0,0-6.69-10.82c-4.9-3.69-11.57-4.93-19.82-3.7a24.83,24.83,0,0,0-9.56,3.47c-3.11.57-12.7,2.33-25.58,4.67a326.39,326.39,0,0,1,13.41-49.85l-11-4.19a328.68,328.68,0,0,0-14.85,56.28C101,449,92.42,450.56,83.68,452.1c4.48-26.74,10-50.74,10.12-51.19l-11.49-2.67c-.45,1.93-6.42,27.83-10.94,56-18.89,3.29-37.48,6.41-50.76,8.39l1.74,11.67c11.84-1.77,42.83,29.47,44.7,42l11.66-1.74c-1.68-11.29.14-30.62,3-50.17,8.69-1.53,17.28-3.05,25.29-4.49-2,16.39-2.65,33.92-.18,50.47C111.64,542.47,136.83,574,180.82,567.44ZM313.2,402.18l27.21-4.06-7,63.81c-.94,4.59-3.83,9.28-15.41,11a4.13,4.13,0,0,1-4.22-1.33C306.1,463.24,308.32,431.89,313.2,402.18Zm-89.39,36.94c6.28-.94,10.2.67,12.33,2.08a151.81,151.81,0,0,0-.62,20.59c-2,7.53-8.65,24.74-19.47,26.35-3.14.47-8.63-.14-10-9.48C202.53,455.22,212.58,440.79,223.81,439.12Zm-65.62,9.79c11.29-1.69,12.9,3.51,13.1,4.5,1.25,8.38-8.29,17.14-17,18.43a57,57,0,0,1-11.08.67C144,463.83,147.51,450.5,158.19,448.91ZM66.73,492.58a112.24,112.24,0,0,0-22.56-21.74c8-1.32,16.6-2.78,25.35-4.3C68.27,475.54,67.27,484.45,66.73,492.58ZM445.25,88.5c122.41,0,230.56,62.16,294.6,156.55L751,243.42A365.73,365.73,0,0,0,94.71,339.59l11-1.62C151,193.56,286.09,88.5,445.25,88.5Zm14.44,253.36c-.73,3-17.86,73.12-12,112.22,2.21,14.82,10.89,22.56,23.22,20.72,8.71-1.29,13.63-4.71,14.16-5.1l-6.86-9.6a23.19,23.19,0,0,1-9,3c-2.19.33-8,1.2-9.81-10.8-5.49-36.79,11.64-106.95,11.82-107.65Zm124.6,140.69-.21,23.88q-.09,9.27,4.56,13.22t12.81,2.74a24.64,24.64,0,0,0,7.36-2.26,18.05,18.05,0,0,0,5.65-4.37,19.4,19.4,0,0,0,3.62-6.41,26.82,26.82,0,0,0,1.31-8.48l.22-23.59-8.92,1.33-.21,23.94q0,5-2.39,7.87a9.85,9.85,0,0,1-6.45,3.47q-4.11.61-6.4-1.64T593,504.87l.22-23.65ZM445.25,800C321.86,800,213,736.85,149.12,641.19l-11.07,1.68A365.82,365.82,0,0,0,797.6,542.7l-11,1.66C743.29,691.94,606.66,800,445.25,800Zm40.23-269.53a8.55,8.55,0,0,1-4.32,1.69,13.8,13.8,0,0,1-6.39-.42,21.06,21.06,0,0,1-5.66-2.85l-5.33,7.3a19.64,19.64,0,0,0,8.06,3.83,24.64,24.64,0,0,0,9.07.29,22,22,0,0,0,6-1.76,16.65,16.65,0,0,0,4.69-3.21,14.1,14.1,0,0,0,3.09-4.51,14.62,14.62,0,0,0,1.14-5.69V525a11,11,0,0,0-.8-4.59,7.64,7.64,0,0,0-2.46-3.06,12.61,12.61,0,0,0-4-1.9,35.65,35.65,0,0,0-5.47-1.06c-1.74-.22-3.18-.42-4.32-.61a11.19,11.19,0,0,1-2.69-.73,2.79,2.79,0,0,1-1.35-1.14,3.44,3.44,0,0,1-.36-1.71v-.12a3.81,3.81,0,0,1,1.33-2.79,7.07,7.07,0,0,1,3.91-1.63,12.43,12.43,0,0,1,5.21.33,24.58,24.58,0,0,1,5.3,2.22l4.69-7.62A19.4,19.4,0,0,0,488,497.7a22.47,22.47,0,0,0-8.18-.16,19.68,19.68,0,0,0-5.72,1.75,16.19,16.19,0,0,0-4.5,3.24,14.88,14.88,0,0,0-2.94,4.4,13.77,13.77,0,0,0-1.08,5.32v.12a11.5,11.5,0,0,0,.91,5,7.59,7.59,0,0,0,2.67,3.09,13,13,0,0,0,4.22,1.73,44,44,0,0,0,5.56.9,37.89,37.89,0,0,1,4.14.63,11.17,11.17,0,0,1,2.48.82,2.6,2.6,0,0,1,1.21,1.11,3.27,3.27,0,0,1,.3,1.53v.12A3.93,3.93,0,0,1,485.48,530.47ZM674.62,509.2a25.74,25.74,0,0,0,6.87-5.43,24.06,24.06,0,0,0,4.49-7.29,23.46,23.46,0,0,0,1.64-8.47v-.12a19.48,19.48,0,0,0-1.49-8,15.7,15.7,0,0,0-4.37-5.94A16.82,16.82,0,0,0,675,470.6a22.2,22.2,0,0,0-8.7-.28l-15.81,2.36-.37,41.79,15.8-2.35A25.79,25.79,0,0,0,674.62,509.2Zm-15.31-29.55,6.89-1a12.39,12.39,0,0,1,5,.18,9,9,0,0,1,3.82,2,9.69,9.69,0,0,1,2.46,3.62,13.19,13.19,0,0,1,.85,4.95v.12a14.79,14.79,0,0,1-.95,5.21,15,15,0,0,1-2.52,4.31,13.33,13.33,0,0,1-3.87,3.14,15,15,0,0,1-5,1.64l-6.89,1Zm58.6-17-.37,41.79,8.91-1.33.38-41.79Zm121.9-139,.94-12.06-39.57,5.9c1.49-8.17,3.11-15.95,4.7-22.77L794.4,292c-1.09,4.67-3.36,14.79-5.59,27.31L660.13,338.49l-.93,12.07,127.58-19c-2.56,16.75-4.48,35.67-3.59,51.24-2.64,5.55-12,22.54-28,24.93-11.16,1.67-14.44-2.75-15.52-4.2-2.72-3.67-3.51-9-4.12-13.07-.82-5.51.91-27.8,14.92-29.89,4.24-.63,7.39-.24,8.87,1.11a5,5,0,0,1,1.31,3.54l5.88.43,5.88.53a16.75,16.75,0,0,0-4.92-13c-4.28-4-10.59-5.46-18.76-4.25-18.56,2.77-24.29,22.65-25,35.59h-.05c-.57,11.16-4.56,27.95-10.31,29.5a4,4,0,0,1-3.74-1.18c-6.73-6.86-5.65-34.36-2.73-51.7l-11.63-2c-.07.42-.16.95-.25,1.55a30.25,30.25,0,0,0-15.6-1.44c-16.88,2.52-32.34,21.94-27.71,53,2.31,15.47,13.44,20.89,23.44,19.4s17.06-9.24,21.68-17.37A22.16,22.16,0,0,0,701.2,421a15.76,15.76,0,0,0,14.12,4.55l.19,0,.19,0c7.09-1.53,11.64-7.76,14.57-14.94,3.92,5.26,11.73,11,26.69,8.8,13.34-2,22.91-10.72,29.12-18.84a25.53,25.53,0,0,0,5.16,9.64,15.76,15.76,0,0,0,14.53,5c13.05-1.94,23-14.06,25-24.65l-11.58-2.24c-1.22,6.31-7.75,14.12-15.17,15.23a4.11,4.11,0,0,1-4.12-1.31c-7.92-8.59-5.71-41.54-.82-72.49Zm-147,68.72c-2,8.23-8.59,26-19.41,27.58-3.15.47-8.64-.14-10-9.48-3.5-23.44,6.55-37.87,17.78-39.54,6.7-1,10.49.88,12.31,2.29A152.38,152.38,0,0,0,692.81,392.33ZM272.19,271.19a246.15,246.15,0,0,0-37.34,47.86L248,317.13C289.85,252.42,362.62,209.5,445.25,209.5a233.68,233.68,0,0,1,152.44,56.39L610.77,264a244.72,244.72,0,0,0-338.58,7.22Zm4.6,350.61a245,245,0,0,0,382.14-58l-12.86,2C604.87,633.57,530.27,679,445.25,679a233.77,233.77,0,0,1-155.62-59.15Z"/></g></svg>