<svg id="Layer_1" data-name="Layer 1" xmlns="http://www.w3.org/2000/svg" viewBox="0 0 462 120"><defs><style>.cls-1{fill:#fff;}</style></defs><title>his_logo_light</title><path class="cls-1" d="M422.26,94.73a9.53,9.53,0,0,0-3.36-2.49,11.19,11.19,0,0,0-4.63-.92,13.41,13.41,0,0,0-4.93.92,14.39,14.39,0,0,0-4.18,2.52,14.65,14.65,0,0,0-3.07,3.71,12.87,12.87,0,0,0-1.61,4.53v.07a10.87,10.87,0,0,0,.16,4.53,9.07,9.07,0,0,0,1.88,3.68,9.54,9.54,0,0,0,3.37,2.48,11.19,11.19,0,0,0,4.63.92,13.41,13.41,0,0,0,4.93-.92,14.18,14.18,0,0,0,4.18-2.52,14.86,14.86,0,0,0,3.07-3.71A13,13,0,0,0,424.3,103v-.06a11.25,11.25,0,0,0-.16-4.54A9,9,0,0,0,422.26,94.73ZM419.14,103v.07a8.42,8.42,0,0,1-.92,2.72,8.92,8.92,0,0,1-1.74,2.24,7.64,7.64,0,0,1-2.37,1.52,7.21,7.21,0,0,1-2.8.55,5.84,5.84,0,0,1-2.65-.57,5.19,5.19,0,0,1-1.9-1.53,5.62,5.62,0,0,1-1.06-2.26,7.37,7.37,0,0,1-.06-2.74v-.06a8.41,8.41,0,0,1,.93-2.73A8.88,8.88,0,0,1,408.3,98a7.71,7.71,0,0,1,2.36-1.52,7.38,7.38,0,0,1,2.82-.55,5.88,5.88,0,0,1,2.63.57A5.37,5.37,0,0,1,418,98a5.54,5.54,0,0,1,1.05,2.26A7,7,0,0,1,419.14,103Zm-42,11.29H382l3.57-22.58h-4.93Zm80.74-87.94,1.48-6.46H437.45c1.47-4.3,3-8.37,4.38-11.93l-6-2.38c-1,2.43-3,7.73-5.23,14.31H359.44L358,26.35h70.56c-2.73,8.86-5.3,18.94-6.08,27.43C420.57,56.57,414.16,65,405.3,65c-6.17,0-7.59-2.65-8.05-3.53-1.18-2.2-1.18-5.15-1.18-7.4,0-3,2.74-15,10.48-15,2.35,0,4,.46,4.71,1.31a2.74,2.74,0,0,1,.43,2l3.14.71,3.14.76a9.17,9.17,0,0,0-1.61-7.45c-2-2.52-5.29-3.81-9.81-3.81-10.26,0-15,10.29-16.41,17.23h0c-1.21,6-4.72,14.75-8,15.12a2.18,2.18,0,0,1-1.93-.94c-3.09-4.25-.28-19,2.7-28.19l-6.14-2-.26.82a16.57,16.57,0,0,0-8.32-2c-9.34,0-19.27,9.26-19.27,26.42,0,8.55,5.59,12.39,11.12,12.39s10-3.62,13.13-7.65a12,12,0,0,0,1.82,4,8.61,8.61,0,0,0,7.27,3.61h.21c4-.26,6.93-3.26,9.09-6.91,1.7,3.16,5.46,6.92,13.73,6.92,7.38,0,13.26-4,17.27-7.85a14.09,14.09,0,0,0,2,5.64,8.63,8.63,0,0,0,7.46,3.86c7.21,0,13.56-5.75,15.52-11.32l-6.08-2.14c-1.18,3.31-5.34,7-9.44,7a2.2,2.2,0,0,1-2.12-1c-3.59-5.29.26-22.93,5.4-39.28ZM372.77,51.66C371,56,366,65,360.05,65c-1.74,0-4.66-.77-4.66-5.93,0-13,6.6-20,12.81-20,3.7,0,5.6,1.32,6.47,2.23A86.47,86.47,0,0,0,372.77,51.66ZM193.28,7.59,187,5.94l-3.68,14H168.77c1.5-4.29,3-8.36,4.48-11.91l-6-2.43c-1,2.41-3.1,7.74-5.37,14.34h-7.59l-1.48,6.46h6.95C156,38.48,152.54,52.83,154,61.93,152.72,63,150,65,146.81,65c-2.77,0-3.89-.48-3.89-5.37a10.83,10.83,0,0,1,.14-1.33.36.36,0,0,0,0-.11h0c1-6.48,6.59-29.83,11.87-50.64L148.7,6c-1.81,7.13-10,39.62-11.86,50.59-.44,1.26-3,8-7.61,8.45a2.13,2.13,0,0,1-1.94-.94C124.2,59.82,127,45,130,35.88l-6.13-2-.26.8a16.63,16.63,0,0,0-8.32-2c-7.27,0-14.86,5.63-17.89,16.19h0C97.29,49,90.57,65,77.72,65c-6.17,0-7.59-2.65-8-3.53a10.8,10.8,0,0,1-1.09-4.31,39.27,39.27,0,0,0,6.45.5c8.08,0,17.12-6.44,17.12-15a9.5,9.5,0,0,0-2.75-6.4C87,33.88,83.54,32.66,79,32.66a13.59,13.59,0,0,0-5.45,1.11c-1.73.06-7.06.24-14.21.46A178,178,0,0,1,70.59,8.34L65,5.19A178.78,178.78,0,0,0,52.39,34.44l-14,.39C43,20.72,47.92,8.19,48,8L42,5.58c-.4,1-5.72,14.54-10.44,29.42-10.48.25-20.79.44-28.14.44v6.45c6.55,0,20.79,19.41,20.79,26.35h6.45c0-6.25,2.55-16.56,5.69-26.9l14-.39a103.71,103.71,0,0,0-4.16,27.29c0,17.74,11.08,36.83,35.41,36.83h131V98.62H81.65c-22.86,0-29-19.1-29-30.38,0-9.13,1.93-18.72,4.53-27.49l9-.28A29.2,29.2,0,0,0,62,54.18c0,2.67,0,6.71,1.93,10.34,1.69,3.17,5.45,7,13.75,7S92.1,67,96.3,62.3a10.73,10.73,0,0,0,10.81,9.17c5.59,0,10-3.6,13.16-7.53a12.16,12.16,0,0,0,1.79,3.92,8.63,8.63,0,0,0,7.28,3.61h.21a12.64,12.64,0,0,0,8.52-4.38c1.66,2.91,4.57,4.39,8.74,4.39a17.11,17.11,0,0,0,9.61-3.29,8.68,8.68,0,0,0,7.06,3.29c8,0,13.15-3.06,15.31-9.06h0l.09-.36c0-.12.09-.24.13-.37h0l4.3-16.29.6-.68c.05-.05,5-5.58,11.2-5.58a3.1,3.1,0,0,1,2.48.75c1.73,2.22-.18,9.87-1.58,15.46-2,8.15-4,15.85-.46,20.33,1.09,1.4,3.2,3.06,7.09,3.06,10.12,0,13.33-9.72,13.47-10.13l-6.15-2c0,.06-1.86,5.64-7.32,5.64-1,0-1.71-.19-2-.58-1.56-2,.29-9.4,1.64-14.79,2.09-8.38,4.07-16.3.41-21-1.68-2.15-4.23-3.24-7.57-3.24A19.43,19.43,0,0,0,186,35.07l2.3-8.72h34.29l1.48-6.46H190ZM79,39.12c6.25,0,6.7,2.94,6.72,3.49,0,4.63-5.86,8.6-10.66,8.6a31.12,31.12,0,0,1-6-.53C70.07,46,73.07,39.12,79,39.12ZM26,55.36A61.52,61.52,0,0,0,15.52,41.78c4.42-.07,9.2-.17,14.06-.28C28.18,46.27,26.91,51,26,55.36Zm93.8-3C118.09,56.24,113.09,65,107.11,65c-1.74,0-4.66-.77-4.66-5.93,0-13,6.6-20,12.82-20a9.34,9.34,0,0,1,6.5,2.12A81.56,81.56,0,0,0,119.77,52.33Zm52.93,8c-.88,2.41-2.82,4.71-9.22,4.71A2.28,2.28,0,0,1,161.3,64c-3.46-5.15.27-21.93,5.31-37.61h15ZM360.21,94.94a9.34,9.34,0,0,0-3.4-2.38,12.33,12.33,0,0,0-4.69-.85h-8.74l-3.57,22.58h8.74a14.21,14.21,0,0,0,9.11-3.26,13.07,13.07,0,0,0,4.59-8v-.06a10.76,10.76,0,0,0-.16-4.44A8.68,8.68,0,0,0,360.21,94.94ZM357.09,103v.07a8.15,8.15,0,0,1-.93,2.74,8.44,8.44,0,0,1-1.71,2.13,7.39,7.39,0,0,1-2.35,1.38,8.06,8.06,0,0,1-2.83.49h-3.81l2.15-13.62h3.81a6.81,6.81,0,0,1,2.68.5A5,5,0,0,1,356,98.1a5.18,5.18,0,0,1,1,2.16A7,7,0,0,1,357.09,103Zm-112-5.26a2.09,2.09,0,0,1,.94-1.4,3.86,3.86,0,0,1,2.25-.56,6.79,6.79,0,0,1,2.79.59A13.33,13.33,0,0,1,253.76,98l3.15-3.74a10.55,10.55,0,0,0-3.46-2.13,12.21,12.21,0,0,0-4.41-.74,10.67,10.67,0,0,0-3.24.48,8.69,8.69,0,0,0-2.69,1.39,8.1,8.1,0,0,0-2,2.14,7.46,7.46,0,0,0-1,2.79v.07a6.3,6.3,0,0,0,.08,2.81,4.18,4.18,0,0,0,1.2,1.88,7,7,0,0,0,2.14,1.28,25.42,25.42,0,0,0,2.93.93,22.16,22.16,0,0,1,2.19.68,5.77,5.77,0,0,1,1.28.65,1.32,1.32,0,0,1,.56.69,1.82,1.82,0,0,1,0,.85v.07a2.17,2.17,0,0,1-1.1,1.56,4.74,4.74,0,0,1-2.48.57,7.55,7.55,0,0,1-3.42-.75,11.74,11.74,0,0,1-2.83-2L237.26,111a10.68,10.68,0,0,0,4.05,2.73,13.61,13.61,0,0,0,4.88.88,11.94,11.94,0,0,0,3.4-.46,9.23,9.23,0,0,0,2.8-1.36,7.73,7.73,0,0,0,2-2.19,8,8,0,0,0,1.08-3v-.06a6,6,0,0,0-.06-2.55,4.11,4.11,0,0,0-1.09-1.85,6.86,6.86,0,0,0-2-1.36,20.68,20.68,0,0,0-2.87-1c-.93-.26-1.69-.49-2.29-.68a6.57,6.57,0,0,1-1.4-.61,1.47,1.47,0,0,1-.63-.73,1.85,1.85,0,0,1-.06-1Zm74.25,6.91a6.7,6.7,0,0,1-1.93,4.06,5.42,5.42,0,0,1-3.77,1.36,3.9,3.9,0,0,1-3.33-1.41c-.71-.93-.91-2.32-.62-4.18l2-12.77h-4.93l-2,12.9c-.53,3.34-.06,5.84,1.4,7.52s3.7,2.52,6.71,2.52A13.3,13.3,0,0,0,317,114a10,10,0,0,0,3.41-1.91,10.63,10.63,0,0,0,2.47-3.17,14.9,14.9,0,0,0,1.4-4.49l2-12.74h-4.94ZM272,96.29h6.82l-2.85,18h4.93l2.85-18h6.82l.73-4.58H272.75ZM347.9,47.11a17.26,17.26,0,0,0-1.65-7.89c-1.54-3-4.86-6.56-12-6.56a17.14,17.14,0,0,0-9.94,3.14c0-.22.07-.43.1-.62l-6.37-1c-.93,5.74-2.13,12.85-3.36,19.77h0C313.62,59.41,309.46,65,306.43,65c-.05,0-.44,0-.52-.09-1.28-1.51,0-8.65.6-12.08a47.05,47.05,0,0,0,1-7.37c0-5.91-3.38-12.81-12.89-12.81-3.78,0-6.79,2-9.21,5.06a9.74,9.74,0,0,0-.69-1c-2.09-2.67-5.58-4-10.35-4A14.34,14.34,0,0,0,268,34.29c.47-1.65.78-2.66.79-2.71l-6.18-1.86c-.33,1.1-8.15,27.2-8.15,38.52h6.45c0-5.62,2.29-15.83,4.4-24l.11.1c1.19-1.34,5.36-5.17,8.89-5.17,1.85,0,4.27.27,5.27,1.55s1.07,4.45-.08,9.08l.07,0A96.16,96.16,0,0,0,276.13,68l6.43.58c1.09-11.86,5.66-29.41,12-29.41,4.27,0,6.44,2.13,6.44,6.35a44.88,44.88,0,0,1-.86,6.24c-1.19,6.66-2.41,13.55.82,17.37a6.8,6.8,0,0,0,5.4,2.39h.07a10.07,10.07,0,0,0,5.26-1.56,79.56,79.56,0,0,1-2.59,10.67L315,83.3c.88-1.87,2.19-7.64,3.56-14.6a16.21,16.21,0,0,0,9.62,2.77C338.11,71.47,347.9,59.44,347.9,47.11ZM328.14,65c-3,0-5.44-.83-6.65-2.27a5.88,5.88,0,0,1-1-4.6c.62-3.42,1.21-6.82,1.75-10,.56-1.25,4.38-9.07,12-9.07,4.19,0,5.56,1.73,6.23,3a11,11,0,0,1,.94,5C341.44,56.37,334,65,328.14,65ZM246.05,78.37a18.43,18.43,0,0,0,8.07-1.62L251.19,71a12.88,12.88,0,0,1-5.14.91c-1.21,0-4.43,0-4.43-6.63,0-20.35,14.93-56.92,15.08-57.29l-6-2.45c-.63,1.55-15.56,38.12-15.56,59.74C235.17,73.47,239.24,78.37,246.05,78.37Z"/></svg>