<svg id="Layer_1" data-name="Layer 1" xmlns="http://www.w3.org/2000/svg" viewBox="0 0 462 120"><defs><style>.cls-1{fill:#1b7a69;}</style></defs><title>his_logo_dark</title><path class="cls-1" d="M422.26,94.41a9.41,9.41,0,0,0-3.36-2.49,11.19,11.19,0,0,0-4.63-.92,13.41,13.41,0,0,0-4.93.92,14.18,14.18,0,0,0-4.18,2.52,14.65,14.65,0,0,0-3.07,3.71,12.87,12.87,0,0,0-1.61,4.53v.06a10.91,10.91,0,0,0,.16,4.54,9,9,0,0,0,1.88,3.67,9.44,9.44,0,0,0,3.37,2.49,11.19,11.19,0,0,0,4.63.92,13.41,13.41,0,0,0,4.93-.92,14.18,14.18,0,0,0,4.18-2.52,14.86,14.86,0,0,0,3.07-3.71,13.07,13.07,0,0,0,1.61-4.53v-.06a11.25,11.25,0,0,0-.16-4.54A9,9,0,0,0,422.26,94.41Zm-3.12,8.27v.06a8.39,8.39,0,0,1-.92,2.73,8.92,8.92,0,0,1-1.74,2.24,7.64,7.64,0,0,1-2.37,1.52,7.39,7.39,0,0,1-2.8.55,5.84,5.84,0,0,1-2.65-.57,5.19,5.19,0,0,1-1.9-1.53,5.62,5.62,0,0,1-1.06-2.26,7.37,7.37,0,0,1-.06-2.74v-.06a8.41,8.41,0,0,1,.93-2.73,8.88,8.88,0,0,1,1.73-2.24,7.71,7.71,0,0,1,2.36-1.52,7.38,7.38,0,0,1,2.82-.55,5.88,5.88,0,0,1,2.63.57A5.26,5.26,0,0,1,418,97.68a5.54,5.54,0,0,1,1.05,2.26A7,7,0,0,1,419.14,102.68Zm-42,11.29H382l3.57-22.58h-4.93ZM457.85,26l1.48-6.46H437.45c1.47-4.3,3-8.37,4.38-11.93l-6-2.39c-1,2.44-3,7.73-5.23,14.32H359.44L358,26h70.56c-2.73,8.86-5.3,18.93-6.08,27.43-1.87,2.79-8.28,11.23-17.14,11.23-6.17,0-7.59-2.65-8.05-3.53-1.18-2.2-1.18-5.15-1.18-7.4,0-3,2.74-15,10.48-15,2.35,0,4,.46,4.71,1.31a2.74,2.74,0,0,1,.43,2l3.14.71,3.14.76a9.17,9.17,0,0,0-1.61-7.45c-2-2.53-5.29-3.81-9.81-3.81-10.26,0-15,10.29-16.41,17.23h0c-1.21,6-4.72,14.75-8,15.12a2.18,2.18,0,0,1-1.93-.94c-3.09-4.25-.28-19,2.7-28.19l-6.14-2-.26.82a16.47,16.47,0,0,0-8.32-2c-9.34,0-19.27,9.26-19.27,26.42,0,8.55,5.59,12.38,11.12,12.38s10-3.61,13.13-7.64a12.14,12.14,0,0,0,1.82,4,8.6,8.6,0,0,0,7.27,3.6h.21c4-.26,6.93-3.26,9.09-6.91,1.7,3.16,5.46,6.91,13.73,6.91,7.38,0,13.26-4,17.27-7.84a14,14,0,0,0,2,5.63,8.64,8.64,0,0,0,7.46,3.87c7.21,0,13.56-5.75,15.52-11.32l-6.08-2.14c-1.18,3.31-5.34,7-9.44,7a2.22,2.22,0,0,1-2.12-1c-3.59-5.29.26-22.93,5.4-39.28ZM372.77,51.34C371,55.63,366,64.69,360.05,64.69c-1.74,0-4.66-.77-4.66-5.93,0-13,6.6-20,12.81-20,3.7,0,5.6,1.32,6.47,2.23A86.47,86.47,0,0,0,372.77,51.34ZM193.28,7.27,187,5.62l-3.68,14H168.77c1.5-4.29,3-8.36,4.48-11.91l-6-2.43c-1,2.41-3.1,7.74-5.37,14.34h-7.59L152.84,26h6.95C156,38.16,152.54,52.51,154,61.61c-1.25,1.07-4,3.08-7.16,3.08-2.77,0-3.89-.48-3.89-5.37a10.65,10.65,0,0,1,.14-1.33.36.36,0,0,0,0-.11h0c1-6.47,6.59-29.82,11.87-50.63L148.7,5.65c-1.81,7.13-10,39.62-11.86,50.59-.44,1.26-3,8.05-7.61,8.45a2.15,2.15,0,0,1-1.94-.94c-3.09-4.25-.29-19,2.69-28.19l-6.13-2-.26.8a16.63,16.63,0,0,0-8.32-2c-7.27,0-14.86,5.63-17.89,16.18h0c-.07.16-6.79,16.17-19.64,16.17-6.17,0-7.59-2.65-8-3.53a10.8,10.8,0,0,1-1.09-4.31,39.42,39.42,0,0,0,6.45.49c8.08,0,17.12-6.43,17.12-15a9.5,9.5,0,0,0-2.75-6.4C87,33.55,83.54,32.34,79,32.34a13.59,13.59,0,0,0-5.45,1.11c-1.73.06-7.06.24-14.21.46A178,178,0,0,1,70.59,8L65,4.87A178.31,178.31,0,0,0,52.39,34.12l-14,.39C43,20.4,47.92,7.86,48,7.63L42,5.26c-.4,1-5.72,14.54-10.44,29.42-10.48.25-20.79.44-28.14.44v6.45C10,41.57,24.22,61,24.22,67.92h6.45c0-6.25,2.55-16.56,5.69-26.9l14-.39a103.71,103.71,0,0,0-4.16,27.29c0,17.74,11.08,36.83,35.41,36.83h131V98.3H81.65c-22.86,0-29-19.1-29-30.38,0-9.13,1.93-18.72,4.53-27.49l9-.29A29.27,29.27,0,0,0,62,53.86c0,2.67,0,6.71,1.93,10.34,1.69,3.17,5.45,6.94,13.75,6.94S92.1,66.7,96.3,62a10.72,10.72,0,0,0,10.81,9.16c5.59,0,10-3.59,13.16-7.52a12.26,12.26,0,0,0,1.79,3.92,8.62,8.62,0,0,0,7.28,3.6h.21a12.61,12.61,0,0,0,8.52-4.39q2.49,4.38,8.74,4.39a17,17,0,0,0,9.61-3.29,8.65,8.65,0,0,0,7.06,3.29c8,0,13.15-3,15.31-9h0l.09-.36c0-.12.09-.24.13-.37h0l4.3-16.29.6-.68c.05-.05,5-5.58,11.2-5.58a3.1,3.1,0,0,1,2.48.75c1.73,2.22-.18,9.87-1.58,15.46-2,8.15-4,15.84-.46,20.33,1.09,1.4,3.2,3.06,7.09,3.06,10.12,0,13.33-9.72,13.47-10.13l-6.15-2c0,.06-1.86,5.64-7.32,5.64-1,0-1.71-.19-2-.58-1.56-2,.29-9.4,1.64-14.79,2.09-8.39,4.07-16.3.41-21-1.68-2.15-4.23-3.24-7.57-3.24A19.43,19.43,0,0,0,186,34.75l2.3-8.72h34.29l1.48-6.46H190ZM79,38.8c6.25,0,6.7,2.94,6.72,3.49,0,4.63-5.86,8.6-10.66,8.6a31.12,31.12,0,0,1-6-.53C70.07,45.72,73.07,38.8,79,38.8ZM26,55A61.52,61.52,0,0,0,15.52,41.46c4.42-.07,9.2-.17,14.06-.28C28.18,46,26.91,50.68,26,55Zm93.8-3c-1.68,3.91-6.68,12.68-12.66,12.68-1.74,0-4.66-.77-4.66-5.93,0-13,6.6-20,12.82-20a9.39,9.39,0,0,1,6.5,2.11A82,82,0,0,0,119.77,52Zm52.93,8c-.88,2.41-2.82,4.71-9.22,4.71a2.28,2.28,0,0,1-2.18-1c-3.46-5.15.27-21.93,5.31-37.61h15ZM360.21,94.61a9.21,9.21,0,0,0-3.4-2.37,12.14,12.14,0,0,0-4.69-.85h-8.74L339.81,114h8.74a14,14,0,0,0,4.95-.87,14.25,14.25,0,0,0,4.16-2.39,13.07,13.07,0,0,0,4.59-8v-.06a10.75,10.75,0,0,0-.16-4.44A8.72,8.72,0,0,0,360.21,94.61Zm-3.12,8.07v.06a8.13,8.13,0,0,1-.93,2.75,8.44,8.44,0,0,1-1.71,2.13,7.39,7.39,0,0,1-2.35,1.38,8.06,8.06,0,0,1-2.83.49h-3.81l2.15-13.62h3.81a6.81,6.81,0,0,1,2.68.5,4.86,4.86,0,0,1,1.9,1.41,5.18,5.18,0,0,1,1,2.16A7,7,0,0,1,357.09,102.68Zm-112-5.26A2.09,2.09,0,0,1,246,96a3.86,3.86,0,0,1,2.25-.57,6.8,6.8,0,0,1,2.79.6,13.33,13.33,0,0,1,2.69,1.63l3.15-3.74a10.55,10.55,0,0,0-3.46-2.13,12.21,12.21,0,0,0-4.41-.74,10.67,10.67,0,0,0-3.24.48,8.69,8.69,0,0,0-2.69,1.39,8.1,8.1,0,0,0-2,2.14,7.46,7.46,0,0,0-1,2.79v.07a6.24,6.24,0,0,0,.08,2.8,4.16,4.16,0,0,0,1.2,1.89,7,7,0,0,0,2.14,1.28,25.42,25.42,0,0,0,2.93.93,19.75,19.75,0,0,1,2.19.68,5.81,5.81,0,0,1,1.28.64,1.37,1.37,0,0,1,.56.7,1.82,1.82,0,0,1,0,.85v.07a2.19,2.19,0,0,1-1.1,1.56,4.74,4.74,0,0,1-2.48.57,7.55,7.55,0,0,1-3.42-.75,11.52,11.52,0,0,1-2.83-2l-3.47,3.52a10.68,10.68,0,0,0,4.05,2.73,13.61,13.61,0,0,0,4.88.88,11.94,11.94,0,0,0,3.4-.46,9.47,9.47,0,0,0,2.8-1.36,7.73,7.73,0,0,0,2-2.19,8,8,0,0,0,1.08-3v-.06a6,6,0,0,0-.06-2.55,4.11,4.11,0,0,0-1.09-1.85,6.86,6.86,0,0,0-2-1.36,20.63,20.63,0,0,0-2.87-1c-.93-.25-1.69-.48-2.29-.67a6.06,6.06,0,0,1-1.4-.62,1.42,1.42,0,0,1-.63-.72,1.85,1.85,0,0,1-.06-1Zm74.25,6.9a6.7,6.7,0,0,1-1.93,4.07,5.42,5.42,0,0,1-3.77,1.36,3.9,3.9,0,0,1-3.33-1.41,5.42,5.42,0,0,1-.62-4.18l2-12.77h-4.93l-2,12.9c-.53,3.34-.06,5.84,1.4,7.52s3.7,2.52,6.71,2.52a13.3,13.3,0,0,0,4.17-.63,10,10,0,0,0,3.41-1.91,10.76,10.76,0,0,0,2.47-3.17,14.9,14.9,0,0,0,1.4-4.49l2-12.74h-4.94ZM272,96h6.82L276,114h4.93l2.85-18h6.82l.73-4.58H272.75ZM347.9,46.79a17.32,17.32,0,0,0-1.65-7.9c-1.54-3-4.86-6.55-12-6.55a17.14,17.14,0,0,0-9.94,3.14c0-.22.07-.43.1-.62l-6.37-1c-.93,5.74-2.13,12.84-3.36,19.77h0c-1.08,5.49-5.24,11.09-8.27,11.09-.05,0-.44,0-.52-.09-1.28-1.51,0-8.65.6-12.08a47.05,47.05,0,0,0,1-7.37c0-5.91-3.38-12.81-12.89-12.81-3.78,0-6.79,2-9.21,5.06a9.74,9.74,0,0,0-.69-1c-2.09-2.67-5.58-4-10.35-4A14.34,14.34,0,0,0,268,34c.47-1.66.78-2.66.79-2.71l-6.18-1.86c-.33,1.1-8.15,27.2-8.15,38.52h6.45c0-5.62,2.29-15.83,4.4-24.05l.11.1c1.19-1.34,5.36-5.17,8.89-5.17,1.85,0,4.27.26,5.27,1.55s1.07,4.45-.08,9.08l.07,0a96.23,96.23,0,0,0-3.46,18.17l6.43.59c1.09-11.86,5.66-29.41,12-29.41,4.27,0,6.44,2.13,6.44,6.35a44.88,44.88,0,0,1-.86,6.24c-1.19,6.66-2.41,13.55.82,17.37a6.8,6.8,0,0,0,5.4,2.38h.07a10,10,0,0,0,5.26-1.56,79.43,79.43,0,0,1-2.59,10.68L315,83c.88-1.88,2.19-7.64,3.56-14.6a16.2,16.2,0,0,0,9.62,2.76C338.11,71.14,347.9,59.12,347.9,46.79Zm-19.76,17.9c-3,0-5.44-.83-6.65-2.27a5.88,5.88,0,0,1-1-4.6c.62-3.42,1.21-6.82,1.75-10,.56-1.25,4.38-9.07,12-9.07,4.19,0,5.56,1.73,6.23,3a11,11,0,0,1,.94,5C341.44,56,334,64.69,328.14,64.69ZM246.05,78a18.51,18.51,0,0,0,8.07-1.61l-2.93-5.75a12.88,12.88,0,0,1-5.14.91c-1.21,0-4.43,0-4.43-6.63,0-20.35,14.93-56.92,15.08-57.29l-6-2.45C250.1,6.76,235.17,43.33,235.17,65,235.17,73.15,239.24,78,246.05,78Z"/></svg>