<?xml version="1.0" encoding="UTF-8" standalone="no"?>
<svg
   xmlns:osb="http://www.openswatchbook.org/uri/2009/osb"
   xmlns:dc="http://purl.org/dc/elements/1.1/"
   xmlns:cc="http://creativecommons.org/ns#"
   xmlns:rdf="http://www.w3.org/1999/02/22-rdf-syntax-ns#"
   xmlns:svg="http://www.w3.org/2000/svg"
   xmlns="http://www.w3.org/2000/svg"
   xmlns:xlink="http://www.w3.org/1999/xlink"
   xmlns:sodipodi="http://sodipodi.sourceforge.net/DTD/sodipodi-0.dtd"
   xmlns:inkscape="http://www.inkscape.org/namespaces/inkscape"
   id="Layer_1"
   data-name="Layer 1"
   viewBox="0 0 462 120"
   version="1.1"
   sodipodi:docname="his_logo_darkGreenNoBorder.svg"
   inkscape:version="0.92.4 (5da689c313, 2019-01-14)">
  <metadata
     id="metadata13">
    <rdf:RDF>
      <cc:Work
         rdf:about="">
        <dc:format>image/svg+xml</dc:format>
        <dc:type
           rdf:resource="http://purl.org/dc/dcmitype/StillImage" />
        <dc:title>his_logo_dark</dc:title>
      </cc:Work>
    </rdf:RDF>
  </metadata>
  <sodipodi:namedview
     pagecolor="#ffffff"
     bordercolor="#666666"
     borderopacity="1"
     objecttolerance="10"
     gridtolerance="10"
     guidetolerance="10"
     inkscape:pageopacity="0"
     inkscape:pageshadow="2"
     inkscape:window-width="1594"
     inkscape:window-height="1170"
     id="namedview11"
     showgrid="false"
     inkscape:zoom="0.62121212"
     inkscape:cx="-30.585366"
     inkscape:cy="60"
     inkscape:window-x="662"
     inkscape:window-y="201"
     inkscape:window-maximized="0"
     inkscape:current-layer="Layer_1" />
  <defs
     id="defs4">
    <linearGradient
       id="linearGradient4525"
       osb:paint="solid">
      <stop
         style="stop-color:#1b7a69;stop-opacity:1;"
         offset="0"
         id="stop4523" />
    </linearGradient>
    <style
       id="style2">.cls-1{fill:#1b7a69;}</style>
    <linearGradient
       inkscape:collect="always"
       xlink:href="#linearGradient4525"
       id="linearGradient4527"
       x1="3.42"
       y1="59.61575"
       x2="459.33"
       y2="59.61575"
       gradientUnits="userSpaceOnUse"
       gradientTransform="translate(-334.82927,-341.26829)" />
  </defs>
  <title
     id="title6">his_logo_dark</title>
  <path
     class="cls-1"
     d="m 87.430732,-246.85829 a 9.41,9.41 0 0 0 -3.36,-2.49 11.19,11.19 0 0 0 -4.63,-0.92 13.41,13.41 0 0 0 -4.93,0.92 14.18,14.18 0 0 0 -4.18,2.52 14.65,14.65 0 0 0 -3.07,3.71 12.87,12.87 0 0 0 -1.61,4.53 v 0.06 a 10.91,10.91 0 0 0 0.16,4.54 9,9 0 0 0 1.88,3.67 9.44,9.44 0 0 0 3.37,2.49 11.19,11.19 0 0 0 4.63,0.92 13.41,13.41 0 0 0 4.93,-0.92 14.18,14.18 0 0 0 4.18,-2.52 14.86,14.86 0 0 0 3.07,-3.71 13.07,13.07 0 0 0 1.61,-4.53 v -0.06 a 11.25,11.25 0 0 0 -0.16,-4.54 9,9 0 0 0 -1.89,-3.67 z m -3.12,8.27 v 0.06 a 8.39,8.39 0 0 1 -0.92,2.73 8.92,8.92 0 0 1 -1.74,2.24 7.64,7.64 0 0 1 -2.37,1.52 7.39,7.39 0 0 1 -2.8,0.55 5.84,5.84 0 0 1 -2.65,-0.57 5.19,5.19 0 0 1 -1.9,-1.53 5.62,5.62 0 0 1 -1.06,-2.26 7.37,7.37 0 0 1 -0.06,-2.74 v -0.06 a 8.41,8.41 0 0 1 0.93,-2.73 8.88,8.88 0 0 1 1.73,-2.24 7.71,7.71 0 0 1 2.36,-1.52 7.38,7.38 0 0 1 2.82,-0.55 5.88,5.88 0 0 1 2.63,0.57 5.26,5.26 0 0 1 1.89,1.53 5.54,5.54 0 0 1 1.05,2.26 7,7 0 0 1 0.09,2.74 z m -42,11.29 h 4.86 l 3.57,-22.58 h -4.93 z m 80.709998,-87.97 1.48,-6.46 h -21.88 c 1.47,-4.3 3,-8.37 4.38,-11.93 l -6,-2.39 c -1,2.44 -2.999998,7.73 -5.229998,14.32 h -71.16 l -1.44,6.46 h 70.56 c -2.73,8.86 -5.3,18.93 -6.08,27.43 -1.87,2.79 -8.28,11.23 -17.14,11.23 -6.17,0 -7.59,-2.65 -8.05,-3.53 -1.18,-2.2 -1.18,-5.15 -1.18,-7.4 0,-3 2.74,-15 10.48,-15 2.35,0 4,0.46 4.71,1.31 a 2.74,2.74 0 0 1 0.43,2 l 3.14,0.71 3.14,0.76 a 9.17,9.17 0 0 0 -1.61,-7.45 c -2,-2.53 -5.29,-3.81 -9.81,-3.81 -10.26,0 -15,10.29 -16.41,17.23 v 0 c -1.21,6 -4.72,14.75 -8,15.12 a 2.18,2.18 0 0 1 -1.93,-0.94 c -3.09,-4.25 -0.28,-19 2.7,-28.19 l -6.14,-2 -0.26,0.82 a 16.47,16.47 0 0 0 -8.32,-2 c -9.34,0 -19.27,9.26 -19.27,26.42 0,8.55 5.59,12.38 11.12,12.38 5.53,0 10,-3.61 13.13,-7.64 a 12.14,12.14 0 0 0 1.82,4 8.6,8.6 0 0 0 7.27,3.6 h 0.21 c 4,-0.26 6.93,-3.26 9.09,-6.91 1.7,3.16 5.46,6.91 13.73,6.91 7.38,0 13.26,-4 17.27,-7.84 a 14,14 0 0 0 2,5.63 8.64,8.64 0 0 0 7.46,3.87 c 7.209998,0 13.559998,-5.75 15.519998,-11.32 l -6.08,-2.14 c -1.18,3.31 -5.34,7 -9.439998,7 a 2.22,2.22 0 0 1 -2.12,-1 c -3.59,-5.29 0.26,-22.93 5.399998,-39.28 z m -85.079998,25.34 c -1.77,4.29 -6.77,13.35 -12.72,13.35 -1.74,0 -4.66,-0.77 -4.66,-5.93 0,-13 6.6,-20 12.81,-20 3.7,0 5.6,1.32 6.47,2.23 a 86.47,86.47 0 0 0 -1.9,10.35 z m -179.490002,-44.07 -6.28,-1.65 -3.68,14 h -14.55 c 1.5,-4.29 3,-8.36 4.48,-11.91 l -6,-2.43 c -1,2.41 -3.1,7.74 -5.37,14.34 h -7.59 l -1.45,6.38 h 6.95 c -3.79,12.16 -7.25,26.51 -5.79,35.61 -1.25,1.07 -4,3.08 -7.16,3.08 -2.77,0 -3.89,-0.48 -3.89,-5.37 a 10.65,10.65 0 0 1 0.14,-1.33 0.36,0.36 0 0 0 0,-0.11 v 0 c 1,-6.47 6.59,-29.82 11.87,-50.63 l -6.26,-1.6 c -1.81,7.13 -10,39.62 -11.86,50.59 -0.44,1.26 -3,8.05 -7.61,8.45 a 2.15,2.15 0 0 1 -1.94,-0.94 c -3.09,-4.25 -0.29,-19 2.69,-28.19 l -6.13,-2 -0.26,0.8 a 16.63,16.63 0 0 0 -8.32,-2 c -7.27,0 -14.86,5.63 -17.89,16.18 v 0 c -0.07,0.16 -6.79,16.17 -19.64,16.17 -6.17,0 -7.59,-2.65 -8,-3.53 a 10.8,10.8 0 0 1 -1.09,-4.31 39.42,39.42 0 0 0 6.45,0.49 c 8.08,0 17.12,-6.43 17.12,-15 a 9.5,9.5 0 0 0 -2.75,-6.4 c -2.47,-2.41 -5.93,-3.62 -10.47,-3.62 a 13.59,13.59 0 0 0 -5.45,1.11 c -1.73,0.06 -7.06,0.24 -14.21,0.46 a 178,178 0 0 1 11.25,-25.91 l -5.59,-3.13 a 178.31,178.31 0 0 0 -12.61,29.25 l -14,0.39 c 4.61,-14.11 9.53,-26.65 9.61,-26.88 l -6,-2.37 c -0.4,1 -5.72,14.54 -10.44,29.42 -10.48,0.25 -20.79,0.44 -28.14,0.44 v 6.45 c 6.58,0 20.8,19.43 20.8,26.35 h 6.45 c 0,-6.25 2.55,-16.56 5.69,-26.9 l 14,-0.39 a 103.71,103.71 0 0 0 -4.16,27.29 c 0,17.74 11.08,36.83 35.41,36.83 h 131 v -6.45 h -130.96 c -22.86,0 -29,-19.1 -29,-30.38 0,-9.13 1.93,-18.72 4.53,-27.49 l 9,-0.29 a 29.27,29.27 0 0 0 -4.18,13.72 c 0,2.67 0,6.71 1.93,10.34 1.69,3.17 5.45,6.94 13.75,6.94 8.3,0 14.42,-4.44 18.62,-9.14 a 10.72,10.72 0 0 0 10.81,9.16 c 5.59,0 10,-3.59 13.16,-7.52 a 12.26,12.26 0 0 0 1.79,3.92 8.62,8.62 0 0 0 7.28,3.6 h 0.21 a 12.61,12.61 0 0 0 8.52,-4.39 q 2.49,4.38 8.74,4.39 a 17,17 0 0 0 9.61,-3.29 8.65,8.65 0 0 0 7.06,3.29 c 8,0 13.15,-3 15.31,-9 v 0 l 0.09,-0.36 c 0,-0.12 0.09,-0.24 0.13,-0.37 v 0 l 4.3,-16.29 0.6,-0.68 c 0.05,-0.05 5,-5.58 11.2,-5.58 a 3.1,3.1 0 0 1 2.48,0.75 c 1.73,2.22 -0.18,9.87 -1.58,15.46 -2,8.15 -4,15.84 -0.46,20.33 1.09,1.4 3.2,3.06 7.09,3.06 10.12,0 13.33,-9.72 13.47,-10.13 l -6.15,-2 c 0,0.06 -1.86,5.64 -7.32,5.64 -1,0 -1.71,-0.19 -2,-0.58 -1.56,-2 0.29,-9.4 1.64,-14.79 2.09,-8.39 4.07,-16.3 0.41,-21 -1.68,-2.15 -4.23,-3.24 -7.57,-3.24 a 19.43,19.43 0 0 0 -9.12,2.37 l 2.3,-8.72 h 34.29 l 1.48,-6.46 h -34.07 z m -114.28,31.53 c 6.25,0 6.7,2.94 6.72,3.49 0,4.63 -5.86,8.6 -10.66,8.6 a 31.12,31.12 0 0 1 -6,-0.53 c 1.01,-4.64 4.01,-11.56 9.94,-11.56 z m -53,16.2 a 61.52,61.52 0 0 0 -10.48,-13.54 c 4.42,-0.07 9.2,-0.17 14.06,-0.28 -1.4,4.82 -2.67,9.5 -3.58,13.82 z m 93.8,-3 c -1.68,3.91 -6.68,12.68 -12.66,12.68 -1.74,0 -4.66,-0.77 -4.66,-5.93 0,-13 6.6,-20 12.82,-20 a 9.39,9.39 0 0 1 6.5,2.11 82,82 0 0 0 -2.03,11.14 z m 52.93,8 c -0.88,2.41 -2.82,4.71 -9.22,4.71 a 2.28,2.28 0 0 1 -2.18,-1 c -3.46,-5.15 0.27,-21.93 5.31,-37.61 h 15 z m 187.480002,34.61 a 9.21,9.21 0 0 0 -3.4,-2.37 12.14,12.14 0 0 0 -4.69,-0.85 H 8.5507317 l -3.57,22.61 h 8.7400003 a 14,14 0 0 0 4.95,-0.87 14.25,14.25 0 0 0 4.16,-2.39 13.07,13.07 0 0 0 4.59,-8 v -0.06 a 10.75,10.75 0 0 0 -0.16,-4.44 8.72,8.72 0 0 0 -1.88,-3.63 z m -3.12,8.07 v 0.06 a 8.13,8.13 0 0 1 -0.93,2.75 8.44,8.44 0 0 1 -1.71,2.13 7.39,7.39 0 0 1 -2.35,1.38 8.06,8.06 0 0 1 -2.83,0.49 h -3.81 l 2.15,-13.62 h 3.81 a 6.81,6.81 0 0 1 2.68,0.5 4.86,4.86 0 0 1 1.9,1.41 5.18,5.18 0 0 1 1,2.16 7,7 0 0 1 0.09,2.74 z m -112,-5.26 a 2.09,2.09 0 0 1 0.91,-1.42 3.86,3.86 0 0 1 2.25,-0.57 6.8,6.8 0 0 1 2.79,0.6 13.33,13.33 0 0 1 2.69,1.63 l 3.15,-3.74 a 10.55,10.55 0 0 0 -3.46,-2.13 12.21,12.21 0 0 0 -4.41,-0.74 10.67,10.67 0 0 0 -3.24,0.48 8.69,8.69 0 0 0 -2.69,1.39 8.1,8.1 0 0 0 -2,2.14 7.46,7.46 0 0 0 -1,2.79 v 0.07 a 6.24,6.24 0 0 0 0.08,2.8 4.16,4.16 0 0 0 1.2,1.89 7,7 0 0 0 2.14,1.28 25.42,25.42 0 0 0 2.93,0.93 19.75,19.75 0 0 1 2.19,0.68 5.81,5.81 0 0 1 1.28,0.64 1.37,1.37 0 0 1 0.56,0.7 1.82,1.82 0 0 1 0,0.85 v 0.07 a 2.19,2.19 0 0 1 -1.1,1.56 4.74,4.74 0 0 1 -2.48,0.57 7.55,7.55 0 0 1 -3.42,-0.75 11.52,11.52 0 0 1 -2.83,-2 l -3.47,3.52 a 10.68,10.68 0 0 0 4.05,2.73 13.61,13.61 0 0 0 4.88,0.88 11.94,11.94 0 0 0 3.4,-0.46 9.47,9.47 0 0 0 2.8,-1.36 7.73,7.73 0 0 0 2,-2.19 8,8 0 0 0 1.08,-3 v -0.06 a 6,6 0 0 0 -0.06,-2.55 4.11,4.11 0 0 0 -1.09,-1.85 6.86,6.86 0 0 0 -2,-1.36 20.63,20.63 0 0 0 -2.87,-1 c -0.93,-0.25 -1.69,-0.48 -2.29,-0.67 a 6.06,6.06 0 0 1 -1.4,-0.62 1.42,1.42 0 0 1 -0.63,-0.72 1.85,1.85 0 0 1 -0.06,-1 z m 74.25,6.9 a 6.7,6.7 0 0 1 -1.93,4.07 5.42,5.42 0 0 1 -3.77,1.36 3.9,3.9 0 0 1 -3.33,-1.41 5.42,5.42 0 0 1 -0.62,-4.18 l 2,-12.77 h -4.93 l -2,12.9 c -0.53,3.34 -0.06,5.84 1.4,7.52 1.46,1.68 3.7,2.52 6.71,2.52 a 13.3,13.3 0 0 0 4.17,-0.63 10,10 0 0 0 3.41,-1.91 10.76,10.76 0 0 0 2.47,-3.17 14.9,14.9 0 0 0 1.4,-4.49 l 1.9999997,-12.74 h -4.9399997 z m -47.34,-8.32 h 6.82 l -2.82,18 h 4.93 l 2.85,-18 h 6.82 l 0.73,-4.58 h -18.58 z m 75.9,-49.21 a 17.32,17.32 0 0 0 -1.65,-7.9 c -1.5400003,-3 -4.8600003,-6.55 -12.00000029,-6.55 a 17.14,17.14 0 0 0 -9.93999971,3.14 c 0,-0.22 0.07,-0.43 0.1,-0.62 l -6.37,-1 c -0.93,5.74 -2.13,12.84 -3.36,19.77 v 0 c -1.08,5.49 -5.24,11.09 -8.27,11.09 -0.05,0 -0.44,0 -0.52,-0.09 -1.28,-1.51 0,-8.65 0.6,-12.08 a 47.05,47.05 0 0 0 1,-7.37 c 0,-5.91 -3.38,-12.81 -12.89,-12.81 -3.78,0 -6.79,2 -9.21,5.06 a 9.74,9.74 0 0 0 -0.69,-1 c -2.09,-2.67 -5.58,-4 -10.35,-4 a 14.34,14.34 0 0 0 -6.35,1.57 c 0.47,-1.66 0.78,-2.66 0.79,-2.71 l -6.18,-1.86 c -0.33,1.1 -8.15,27.2 -8.15,38.52 h 6.45 c 0,-5.62 2.29,-15.83 4.4,-24.05 l 0.11,0.1 c 1.19,-1.34 5.36,-5.17 8.89,-5.17 1.85,0 4.27,0.26 5.27,1.55 1,1.29 1.07,4.45 -0.08,9.08 h 0.07 a 96.23,96.23 0 0 0 -3.46,18.17 l 6.43,0.59 c 1.09,-11.86 5.66,-29.41 12,-29.41 4.27,0 6.44,2.13 6.44,6.35 a 44.88,44.88 0 0 1 -0.86,6.24 c -1.19,6.66 -2.41,13.55 0.82,17.37 a 6.8,6.8 0 0 0 5.4,2.38 h 0.07 a 10,10 0 0 0 5.26,-1.56 79.43,79.43 0 0 1 -2.59,10.68 l 5.92,2.73 c 0.88,-1.88 2.19,-7.64 3.56,-14.6 a 16.2,16.2 0 0 0 9.6199997,2.76 c 9.93,-0.02 19.7200003,-12.04 19.7200003,-24.37 z m -19.7600003,17.9 c -3,0 -5.4399997,-0.83 -6.6499997,-2.27 a 5.88,5.88 0 0 1 -1,-4.6 c 0.62,-3.42 1.21,-6.82 1.75,-10 0.56,-1.25 4.3799997,-9.07 11.99999971,-9.07 4.18999999,0 5.55999999,1.73 6.22999999,3 a 11,11 0 0 1 0.94,5 c 0.03,9.25 -7.40999999,17.94 -13.27,17.94 z m -82.0899997,13.31 a 18.51,18.51 0 0 0 8.07,-1.61 l -2.93,-5.75 a 12.88,12.88 0 0 1 -5.14,0.91 c -1.21,0 -4.43,0 -4.43,-6.63 0,-20.35 14.93,-56.92 15.08,-57.29 l -6,-2.45 c -0.6,1.58 -15.53,38.15 -15.53,59.82 0,8.15 4.07,13 10.88,13 z"
     id="path8"
     style="fill:url(#linearGradient4527);fill-opacity:1"
     inkscape:connector-curvature="0" />
</svg>
