<svg id="Layer_1" data-name="Layer 1" xmlns="http://www.w3.org/2000/svg" viewBox="0 0 68 68"><defs><style>.cls-1{fill:#25344f;}.cls-2{fill:#293854;}.cls-3{fill:#fff;}</style></defs><title>openpipe-ui_button-dashboard-2-selected</title><circle class="cls-1" cx="34" cy="34.5" r="28.5"/><circle class="cls-2" cx="33" cy="33.5" r="28.5"/><path class="cls-3" d="M30.85,34.81a2.59,2.59,0,0,1,2-1,2.52,2.52,0,0,1,1.38.42l4.51,2.93L41.47,34a6.79,6.79,0,0,0-.67-.32c-.76-.32-2-.51-3-.84a4.09,4.09,0,0,1-.42-.16h0c-.6-.25-1-.58-1.05-1.08,0-.89.13-2.69.83-3.32.92-1.15,1.22-4.23,1.22-4.23.45-3.27-.52-5.55-3.34-6.22a6.9,6.9,0,0,0-1.68-.21,6.34,6.34,0,0,0-3.19.86,3.28,3.28,0,0,0-1.79,2.8c0,1,0,1.94,0,3.05a8.08,8.08,0,0,0,1.06,4c.83.7.76,3.32.28,3.8a3.77,3.77,0,0,1-1,.61l-.41.17c-.58.22-1.22.42-1.76.58a5.63,5.63,0,0,0-3.08,1.64c-2.13,2.68-3,5.87-3.68,9.14-.1.49.1.69.56.85a15.57,15.57,0,0,0,2.27.61Z"/><path class="cls-3" d="M41.45,44a2.51,2.51,0,0,1-1.93.89,2.56,2.56,0,0,1-1.39-.41l-4.34-2.82-3.82,5a23.16,23.16,0,0,0,9.14-.51L41.45,46a10.24,10.24,0,0,0,4.34-1,1.07,1.07,0,0,0,.51-.86,25.25,25.25,0,0,0-.82-4.87Z"/><path class="cls-3" d="M48.68,32.08a.29.29,0,0,0,0-.41l-1.08-.92a.31.31,0,0,0-.21-.07.3.3,0,0,0-.2.1l-7.51,8.81a.8.8,0,0,1-1,.15L33,36.11a.26.26,0,0,0-.15,0,.29.29,0,0,0-.24.11L24.11,47.35a.29.29,0,0,0,.06.41l1.12.86a.28.28,0,0,0,.22.05.24.24,0,0,0,.19-.11l7.13-9.32a.8.8,0,0,1,1.06-.19l5.47,3.56a.29.29,0,0,0,.38,0Z"/></svg>