<svg id="Layer_1" data-name="Layer 1" xmlns="http://www.w3.org/2000/svg" viewBox="0 0 68 68"><defs><style>.cls-1{fill:#25344f;}.cls-2{fill:#455473;}.cls-3{fill:#fff;}.cls-4{fill:none;stroke:#455473;stroke-miterlimit:10;stroke-width:0.5px;}</style></defs><title>openpipe-ui_button-dashboard-2-normal</title><circle class="cls-1" cx="35" cy="35.5" r="28.5"/><circle class="cls-2" cx="33" cy="32.5" r="28.5"/><path class="cls-3" d="M43.33,34.39a7.24,7.24,0,0,0-2.53-1.72c-.76-.32-2-.51-3-.84a4.09,4.09,0,0,1-.42-.16h0c-.6-.25-1-.58-1.05-1.08,0-.89.13-2.69.83-3.32.92-1.15,1.22-4.23,1.22-4.23.45-3.27-.52-5.55-3.34-6.22a6.9,6.9,0,0,0-1.68-.21,6.34,6.34,0,0,0-3.19.86,3.28,3.28,0,0,0-1.79,2.8c0,1,0,1.94,0,3.05a8.08,8.08,0,0,0,1.06,4c.82.7.76,3.32.28,3.8a3.77,3.77,0,0,1-1,.61l-.41.16c-.58.23-1.22.43-1.76.59a5.63,5.63,0,0,0-3.08,1.64c-2.13,2.68-3,5.87-3.68,9.14-.1.49.1.69.56.85a15.35,15.35,0,0,0,4.63.87l2.34.17a22.52,22.52,0,0,0,11.86.06L41.45,45a10.24,10.24,0,0,0,4.34-1,1.07,1.07,0,0,0,.51-.86C46,39.83,45.58,36.87,43.33,34.39Z"/><path class="cls-2" d="M25.47,49.93a2.6,2.6,0,0,1-1.55-.52l-1.12-.86A2.55,2.55,0,0,1,22.32,45l8.53-11.17a2.59,2.59,0,0,1,2-1,2.52,2.52,0,0,1,1.38.42l4.51,2.93,6.68-7.84A2.54,2.54,0,0,1,49,28l1.08.92a2.54,2.54,0,0,1,.28,3.58L41.45,43a2.51,2.51,0,0,1-1.93.89,2.56,2.56,0,0,1-1.39-.41l-4.34-2.82-6.3,8.25A2.59,2.59,0,0,1,25.47,49.93Z"/><path class="cls-3" d="M25.14,47.82,24,47a.55.55,0,0,1-.1-.76L32.44,35a.55.55,0,0,1,.73-.13l5.58,3.63a.54.54,0,0,0,.71-.1L47,29.62a.54.54,0,0,1,.76-.06l1.08.92a.53.53,0,0,1,.06.76L39.93,41.72a.53.53,0,0,1-.7.1l-5.48-3.56a.55.55,0,0,0-.73.13L25.9,47.72A.55.55,0,0,1,25.14,47.82Z"/><path class="cls-4" d="M25.14,47.82,24,47a.55.55,0,0,1-.1-.76L32.44,35a.55.55,0,0,1,.73-.13l5.58,3.63a.54.54,0,0,0,.71-.1L47,29.62a.54.54,0,0,1,.76-.06l1.08.92a.53.53,0,0,1,.06.76L39.93,41.72a.53.53,0,0,1-.7.1l-5.48-3.56a.55.55,0,0,0-.73.13L25.9,47.72A.55.55,0,0,1,25.14,47.82Z"/></svg>