<svg id="Layer_1" data-name="Layer 1" xmlns="http://www.w3.org/2000/svg" viewBox="0 0 68 68"><defs><style>.cls-1{fill:#25344f;}.cls-2{fill:#455473;}.cls-3{fill:#fff;}</style></defs><title>openpipe-ui_button-settings-normal</title><circle class="cls-1" cx="35" cy="35.5" r="28.5"/><circle class="cls-2" cx="33" cy="32.5" r="28.5"/><path class="cls-3" d="M46.62,35.89c-.9-.67-1.8-1.35-2.69-2a.75.75,0,0,1-.23-.24,3.77,3.77,0,0,1-.33-.94A1.49,1.49,0,0,1,44,31.1c.9-.65,1.77-1.34,2.65-2a.84.84,0,0,0,.35-.77,4.54,4.54,0,0,0-1-2.68,1,1,0,0,0-.91-.39l-2.77.36a2.49,2.49,0,0,1-.85.09,2,2,0,0,1-1.18-.66,1.43,1.43,0,0,1-.45-1.1c.16-1.17.32-2.34.49-3.5a.86.86,0,0,0-.32-.81,4.55,4.55,0,0,0-2.72-1.13.88.88,0,0,0-.86.38C35.57,19.94,34.78,21,34,22a.35.35,0,0,1-.32.17c-.45,0-.89,0-1.33,0A.41.41,0,0,1,32,22l-2.32-3.12a1,1,0,0,0-.89-.39,4.74,4.74,0,0,0-2.5,1,1.13,1.13,0,0,0-.5,1.2c.17,1.13.33,2.25.49,3.38a.48.48,0,0,1,0,.27,3.64,3.64,0,0,1-.51.8,1.81,1.81,0,0,1-1.67.57c-1-.19-2-.29-3.07-.43a.93.93,0,0,0-.89.38,4.63,4.63,0,0,0-1,2.49,1,1,0,0,0,.45,1.06c.86.64,1.69,1.31,2.57,1.92a1.35,1.35,0,0,1,.58,1,.58.58,0,0,1,0,.19A1.69,1.69,0,0,1,22,33.93c-.87.61-1.7,1.28-2.55,1.92a1,1,0,0,0-.41.92A4.7,4.7,0,0,0,20,39.23a1.12,1.12,0,0,0,1.18.49c1.13-.18,2.27-.32,3.4-.48a.51.51,0,0,1,.25,0,2.21,2.21,0,0,1,1.38,1.32.9.9,0,0,1,0,.43c-.16,1.13-.32,2.26-.49,3.38a1,1,0,0,0,.44,1.07,4.71,4.71,0,0,0,2.39,1A1.06,1.06,0,0,0,29.71,46C30.47,45,31.24,44,32,43a.33.33,0,0,1,.25-.15c.27,0,.54,0,.81,0h0a3.75,3.75,0,0,0,.58,0A.32.32,0,0,1,34,43l2.41,3.2a.8.8,0,0,0,.73.33A4.55,4.55,0,0,0,40,45.3a.77.77,0,0,0,.26-.69c-.11-.89-.23-1.78-.34-2.67a3.14,3.14,0,0,1-.14-1A2.1,2.1,0,0,1,41,39.33a1.07,1.07,0,0,1,.53-.07c1.19.15,2.37.32,3.55.48a.81.81,0,0,0,.77-.28A4.51,4.51,0,0,0,47,36.68.86.86,0,0,0,46.62,35.89ZM33,37a4.46,4.46,0,1,1,4.46-4.46A4.46,4.46,0,0,1,33,37Z"/></svg>