<svg id="Layer_1" data-name="Layer 1" xmlns="http://www.w3.org/2000/svg" viewBox="0 0 68 68"><defs><style>.cls-1{fill:#25344f;}.cls-2{fill:#455473;}.cls-3{fill:#fff;}</style></defs><title>openpipe-ui_button-dashboard-normal</title><circle class="cls-1" cx="35" cy="35.5" r="28.5"/><circle class="cls-2" cx="33" cy="32.5" r="28.5"/><path class="cls-3" d="M33.46,19.31h0A19.38,19.38,0,0,0,14.12,37.63a1,1,0,0,0,1,1H29.59a3.87,3.87,0,0,1,3.87-3.87,3,3,0,0,1,.31,0,17.38,17.38,0,0,1,7.11-11,17.34,17.34,0,0,1-4.53,12.26,3.81,3.81,0,0,1,1,2.55H51.78a1,1,0,0,0,1-1A19.36,19.36,0,0,0,33.46,19.31Z"/></svg>